{
    "asset" : {
        "generator" : "Khronos glTF Blender I/O v1.2.75",
        "version" : "2.0"
    },
    "scene" : 0,
    "scenes" : [
        {
            "name" : "Scene",
            "nodes" : [
                0,
                1,
                2,
                3
            ]
        }
    ],
    "nodes" : [
        {
            "name" : "Light",
            "rotation" : [
                0.16907575726509094,
                0.7558803558349609,
                -0.27217137813568115,
                0.570947527885437
            ],
            "translation" : [
                4.076245307922363,
                5.903861999511719,
                -1.0054539442062378
            ]
        },
        {
            "name" : "Camera",
            "rotation" : [
                0.483536034822464,
                0.33687159419059753,
                -0.20870360732078552,
                0.7804827094078064
            ],
            "translation" : [
                7.358891487121582,
                4.958309173583984,
                6.925790786743164
            ]
        },
        {
            "mesh" : 0,
            "name" : "Plane"
        },
        {
            "mesh" : 1,
            "name" : "Cube",
            "rotation" : [
                0,
                0,
                0.039974916726350784,
                -0.999200701713562
            ],
            "translation" : [
                0,
                3.114718198776245,
                0.9191308617591858
            ]
        }
    ],
    "animations" : [
        {
            "channels" : [
                {
                    "sampler" : 0,
                    "target" : {
                        "node" : 3,
                        "path" : "translation"
                    }
                },
                {
                    "sampler" : 1,
                    "target" : {
                        "node" : 3,
                        "path" : "rotation"
                    }
                }
            ],
            "name" : "CubeAction",
            "samplers" : [
                {
                    "input" : 28,
                    "interpolation" : "LINEAR",
                    "output" : 29
                },
                {
                    "input" : 28,
                    "interpolation" : "LINEAR",
                    "output" : 30
                }
            ]
        }
    ],
    "materials" : [
        {
            "doubleSided" : true,
            "emissiveFactor" : [
                0,
                0,
                0
            ],
            "name" : "Riet",
            "pbrMetallicRoughness" : {
                "baseColorFactor" : [
                    0.1424032300710678,
                    0.042088910937309265,
                    0.01877397671341896,
                    1
                ],
                "metallicFactor" : 0,
                "roughnessFactor" : 0.5
            }
        },
        {
            "doubleSided" : true,
            "emissiveFactor" : [
                0,
                0,
                0
            ],
            "name" : "Steen",
            "pbrMetallicRoughness" : {
                "baseColorFactor" : [
                    0.3843782842159271,
                    0.3843782842159271,
                    0.3843782842159271,
                    1
                ],
                "metallicFactor" : 0,
                "roughnessFactor" : 0.5
            }
        },
        {
            "doubleSided" : true,
            "emissiveFactor" : [
                0,
                0,
                0
            ],
            "name" : "DonkerGroen",
            "pbrMetallicRoughness" : {
                "baseColorFactor" : [
                    0.007610206957906485,
                    0.09850582480430603,
                    0.03707731142640114,
                    1
                ],
                "metallicFactor" : 0,
                "roughnessFactor" : 0.5
            }
        },
        {
            "doubleSided" : true,
            "emissiveFactor" : [
                0,
                0,
                0
            ],
            "name" : "DonkerBruin",
            "pbrMetallicRoughness" : {
                "baseColorFactor" : [
                    0.054970115423202515,
                    0.009660071693360806,
                    0.004604007583111525,
                    1
                ],
                "metallicFactor" : 0,
                "roughnessFactor" : 0.5
            }
        },
        {
            "doubleSided" : true,
            "emissiveFactor" : [
                0,
                0,
                0
            ],
            "name" : "Wit",
            "pbrMetallicRoughness" : {
                "baseColorFactor" : [
                    0.9113994240760803,
                    0.9113994240760803,
                    0.9113994240760803,
                    1
                ],
                "metallicFactor" : 0,
                "roughnessFactor" : 0.5
            }
        },
        {
            "doubleSided" : true,
            "emissiveFactor" : [
                0,
                0,
                0
            ],
            "name" : "Wieken",
            "pbrMetallicRoughness" : {
                "baseColorFactor" : [
                    0.04696277529001236,
                    0.01176105160266161,
                    0.005630267318338156,
                    1
                ],
                "metallicFactor" : 0,
                "roughnessFactor" : 0.5
            }
        },
        {
            "doubleSided" : true,
            "emissiveFactor" : [
                0,
                0,
                0
            ],
            "name" : "WiekenDoek",
            "pbrMetallicRoughness" : {
                "baseColorFactor" : [
                    0.800000011920929,
                    0.800000011920929,
                    0.800000011920929,
                    1
                ],
                "metallicFactor" : 0,
                "roughnessFactor" : 0.5
            }
        }
    ],
    "meshes" : [
        {
            "name" : "Plane",
            "primitives" : [
                {
                    "attributes" : {
                        "POSITION" : 0,
                        "NORMAL" : 1,
                        "TEXCOORD_0" : 2
                    },
                    "indices" : 3,
                    "material" : 0
                },
                {
                    "attributes" : {
                        "POSITION" : 4,
                        "NORMAL" : 5,
                        "TEXCOORD_0" : 6
                    },
                    "indices" : 7,
                    "material" : 1
                },
                {
                    "attributes" : {
                        "POSITION" : 8,
                        "NORMAL" : 9,
                        "TEXCOORD_0" : 10
                    },
                    "indices" : 11,
                    "material" : 2
                },
                {
                    "attributes" : {
                        "POSITION" : 12,
                        "NORMAL" : 13,
                        "TEXCOORD_0" : 14
                    },
                    "indices" : 15,
                    "material" : 3
                },
                {
                    "attributes" : {
                        "POSITION" : 16,
                        "NORMAL" : 17,
                        "TEXCOORD_0" : 18
                    },
                    "indices" : 19,
                    "material" : 4
                }
            ]
        },
        {
            "name" : "Cube.001",
            "primitives" : [
                {
                    "attributes" : {
                        "POSITION" : 20,
                        "NORMAL" : 21,
                        "TEXCOORD_0" : 22
                    },
                    "indices" : 23,
                    "material" : 5
                },
                {
                    "attributes" : {
                        "POSITION" : 24,
                        "NORMAL" : 25,
                        "TEXCOORD_0" : 26
                    },
                    "indices" : 27,
                    "material" : 6
                }
            ]
        }
    ],
    "accessors" : [
        {
            "bufferView" : 0,
            "componentType" : 5126,
            "count" : 60,
            "max" : [
                1.0855404138565063,
                2.945034980773926,
                1.0855404138565063
            ],
            "min" : [
                -1.0855404138565063,
                -1.803363858243756e-07,
                -1.0855404138565063
            ],
            "type" : "VEC3"
        },
        {
            "bufferView" : 1,
            "componentType" : 5126,
            "count" : 60,
            "type" : "VEC3"
        },
        {
            "bufferView" : 2,
            "componentType" : 5126,
            "count" : 60,
            "type" : "VEC2"
        },
        {
            "bufferView" : 3,
            "componentType" : 5123,
            "count" : 96,
            "type" : "SCALAR"
        },
        {
            "bufferView" : 4,
            "componentType" : 5126,
            "count" : 65,
            "max" : [
                1,
                0.5967680215835571,
                1
            ],
            "min" : [
                -1,
                -1.803363858243756e-07,
                -1
            ],
            "type" : "VEC3"
        },
        {
            "bufferView" : 5,
            "componentType" : 5126,
            "count" : 65,
            "type" : "VEC3"
        },
        {
            "bufferView" : 6,
            "componentType" : 5126,
            "count" : 65,
            "type" : "VEC2"
        },
        {
            "bufferView" : 7,
            "componentType" : 5123,
            "count" : 111,
            "type" : "SCALAR"
        },
        {
            "bufferView" : 8,
            "componentType" : 5126,
            "count" : 108,
            "max" : [
                1.3051466941833496,
                3.0494601726531982,
                1.3051466941833496
            ],
            "min" : [
                -1.3051466941833496,
                0.0010642067063599825,
                -1.3967342376708984
            ],
            "type" : "VEC3"
        },
        {
            "bufferView" : 9,
            "componentType" : 5126,
            "count" : 108,
            "type" : "VEC3"
        },
        {
            "bufferView" : 10,
            "componentType" : 5126,
            "count" : 108,
            "type" : "VEC2"
        },
        {
            "bufferView" : 11,
            "componentType" : 5123,
            "count" : 162,
            "type" : "SCALAR"
        },
        {
            "bufferView" : 12,
            "componentType" : 5126,
            "count" : 161,
            "max" : [
                1.3051466941833496,
                3.619843006134033,
                1.3051466941833496
            ],
            "min" : [
                -1.3051466941833496,
                0.5967680215835571,
                -1.3051466941833496
            ],
            "type" : "VEC3"
        },
        {
            "bufferView" : 13,
            "componentType" : 5126,
            "count" : 161,
            "type" : "VEC3"
        },
        {
            "bufferView" : 14,
            "componentType" : 5126,
            "count" : 161,
            "type" : "VEC2"
        },
        {
            "bufferView" : 15,
            "componentType" : 5123,
            "count" : 315,
            "type" : "SCALAR"
        },
        {
            "bufferView" : 16,
            "componentType" : 5126,
            "count" : 12,
            "max" : [
                0.9607966542243958,
                0.44757601618766785,
                0.13467924296855927
            ],
            "min" : [
                0.9560242295265198,
                -1.803363858243756e-07,
                -0.1382060945034027
            ],
            "type" : "VEC3"
        },
        {
            "bufferView" : 17,
            "componentType" : 5126,
            "count" : 12,
            "type" : "VEC3"
        },
        {
            "bufferView" : 18,
            "componentType" : 5126,
            "count" : 12,
            "type" : "VEC2"
        },
        {
            "bufferView" : 19,
            "componentType" : 5123,
            "count" : 18,
            "type" : "SCALAR"
        },
        {
            "bufferView" : 20,
            "componentType" : 5126,
            "count" : 226,
            "max" : [
                2.020296096801758,
                2.0094456672668457,
                0.32658320665359497
            ],
            "min" : [
                -1.9982537031173706,
                -2.008744955062866,
                -0.030021175742149353
            ],
            "type" : "VEC3"
        },
        {
            "bufferView" : 21,
            "componentType" : 5126,
            "count" : 226,
            "type" : "VEC3"
        },
        {
            "bufferView" : 22,
            "componentType" : 5126,
            "count" : 226,
            "type" : "VEC2"
        },
        {
            "bufferView" : 23,
            "componentType" : 5123,
            "count" : 342,
            "type" : "SCALAR"
        },
        {
            "bufferView" : 24,
            "componentType" : 5126,
            "count" : 80,
            "max" : [
                2.019939422607422,
                2.009942054748535,
                0.2947880029678345
            ],
            "min" : [
                -1.9981058835983276,
                -2.008744955062866,
                0.11013278365135193
            ],
            "type" : "VEC3"
        },
        {
            "bufferView" : 25,
            "componentType" : 5126,
            "count" : 80,
            "type" : "VEC3"
        },
        {
            "bufferView" : 26,
            "componentType" : 5126,
            "count" : 80,
            "type" : "VEC2"
        },
        {
            "bufferView" : 27,
            "componentType" : 5123,
            "count" : 120,
            "type" : "SCALAR"
        },
        {
            "bufferView" : 28,
            "componentType" : 5126,
            "count" : 120,
            "max" : [
                5
            ],
            "min" : [
                0.041666666666666664
            ],
            "type" : "SCALAR"
        },
        {
            "bufferView" : 29,
            "componentType" : 5126,
            "count" : 120,
            "type" : "VEC3"
        },
        {
            "bufferView" : 30,
            "componentType" : 5126,
            "count" : 120,
            "type" : "VEC4"
        }
    ],
    "bufferViews" : [
        {
            "buffer" : 0,
            "byteLength" : 720,
            "byteOffset" : 0
        },
        {
            "buffer" : 0,
            "byteLength" : 720,
            "byteOffset" : 720
        },
        {
            "buffer" : 0,
            "byteLength" : 480,
            "byteOffset" : 1440
        },
        {
            "buffer" : 0,
            "byteLength" : 192,
            "byteOffset" : 1920
        },
        {
            "buffer" : 0,
            "byteLength" : 780,
            "byteOffset" : 2112
        },
        {
            "buffer" : 0,
            "byteLength" : 780,
            "byteOffset" : 2892
        },
        {
            "buffer" : 0,
            "byteLength" : 520,
            "byteOffset" : 3672
        },
        {
            "buffer" : 0,
            "byteLength" : 222,
            "byteOffset" : 4192
        },
        {
            "buffer" : 0,
            "byteLength" : 1296,
            "byteOffset" : 4416
        },
        {
            "buffer" : 0,
            "byteLength" : 1296,
            "byteOffset" : 5712
        },
        {
            "buffer" : 0,
            "byteLength" : 864,
            "byteOffset" : 7008
        },
        {
            "buffer" : 0,
            "byteLength" : 324,
            "byteOffset" : 7872
        },
        {
            "buffer" : 0,
            "byteLength" : 1932,
            "byteOffset" : 8196
        },
        {
            "buffer" : 0,
            "byteLength" : 1932,
            "byteOffset" : 10128
        },
        {
            "buffer" : 0,
            "byteLength" : 1288,
            "byteOffset" : 12060
        },
        {
            "buffer" : 0,
            "byteLength" : 630,
            "byteOffset" : 13348
        },
        {
            "buffer" : 0,
            "byteLength" : 144,
            "byteOffset" : 13980
        },
        {
            "buffer" : 0,
            "byteLength" : 144,
            "byteOffset" : 14124
        },
        {
            "buffer" : 0,
            "byteLength" : 96,
            "byteOffset" : 14268
        },
        {
            "buffer" : 0,
            "byteLength" : 36,
            "byteOffset" : 14364
        },
        {
            "buffer" : 0,
            "byteLength" : 2712,
            "byteOffset" : 14400
        },
        {
            "buffer" : 0,
            "byteLength" : 2712,
            "byteOffset" : 17112
        },
        {
            "buffer" : 0,
            "byteLength" : 1808,
            "byteOffset" : 19824
        },
        {
            "buffer" : 0,
            "byteLength" : 684,
            "byteOffset" : 21632
        },
        {
            "buffer" : 0,
            "byteLength" : 960,
            "byteOffset" : 22316
        },
        {
            "buffer" : 0,
            "byteLength" : 960,
            "byteOffset" : 23276
        },
        {
            "buffer" : 0,
            "byteLength" : 640,
            "byteOffset" : 24236
        },
        {
            "buffer" : 0,
            "byteLength" : 240,
            "byteOffset" : 24876
        },
        {
            "buffer" : 0,
            "byteLength" : 480,
            "byteOffset" : 25116
        },
        {
            "buffer" : 0,
            "byteLength" : 1440,
            "byteOffset" : 25596
        },
        {
            "buffer" : 0,
            "byteLength" : 1920,
            "byteOffset" : 27036
        }
    ],
    "buffers" : [
        {
            "byteLength" : 28956,
            "uri" : "windmill01.bin"
        }
    ]
}
