{
    "asset" : {
        "generator" : "Khronos glTF Blender I/O v1.2.75",
        "version" : "2.0"
    },
    "scene" : 0,
    "scenes" : [
        {
            "name" : "Scene",
            "nodes" : [
                0,
                1,
                2
            ]
        }
    ],
    "nodes" : [
        {
            "name" : "Light",
            "rotation" : [
                0.16907575726509094,
                0.7558803558349609,
                -0.27217137813568115,
                0.570947527885437
            ],
            "translation" : [
                4.076245307922363,
                5.903861999511719,
                -1.0054539442062378
            ]
        },
        {
            "name" : "Camera",
            "rotation" : [
                0.483536034822464,
                0.33687159419059753,
                -0.20870360732078552,
                0.7804827094078064
            ],
            "translation" : [
                7.358891487121582,
                4.958309173583984,
                6.925790786743164
            ]
        },
        {
            "mesh" : 0,
            "name" : "Plane",
            "scale" : [
                14.998292922973633,
                14.998292922973633,
                14.998292922973633
            ]
        }
    ],
    "materials" : [
        {
            "doubleSided" : true,
            "emissiveFactor" : [
                0,
                0,
                0
            ],
            "name" : "Gras",
            "pbrMetallicRoughness" : {
                "baseColorFactor" : [
                    0.08651593327522278,
                    0.5814691185951233,
                    0.02393624559044838,
                    1
                ],
                "metallicFactor" : 0,
                "roughnessFactor" : 0.5
            }
        },
        {
            "alphaMode" : "BLEND",
            "doubleSided" : true,
            "emissiveFactor" : [
                0,
                0,
                0
            ],
            "name" : "Water",
            "pbrMetallicRoughness" : {
                "baseColorFactor" : [
                    0.037082307040691376,
                    0.21464593708515167,
                    0.8000000715255737,
                    1
                ],
                "metallicFactor" : 0.3205128014087677,
                "roughnessFactor" : 0.4615384638309479
            }
        }
    ],
    "meshes" : [
        {
            "name" : "Plane",
            "primitives" : [
                {
                    "attributes" : {
                        "POSITION" : 0,
                        "NORMAL" : 1,
                        "TEXCOORD_0" : 2
                    },
                    "indices" : 3,
                    "material" : 0
                },
                {
                    "attributes" : {
                        "POSITION" : 4,
                        "NORMAL" : 5,
                        "TEXCOORD_0" : 6
                    },
                    "indices" : 7,
                    "material" : 1
                }
            ]
        }
    ],
    "accessors" : [
        {
            "bufferView" : 0,
            "componentType" : 5126,
            "count" : 3856,
            "max" : [
                1.0021601915359497,
                0.046140436083078384,
                1.0047763586044312
            ],
            "min" : [
                -1.0019443035125732,
                -0.13917744159698486,
                -1.0023350715637207
            ],
            "type" : "VEC3"
        },
        {
            "bufferView" : 1,
            "componentType" : 5126,
            "count" : 3856,
            "type" : "VEC3"
        },
        {
            "bufferView" : 2,
            "componentType" : 5126,
            "count" : 3856,
            "type" : "VEC2"
        },
        {
            "bufferView" : 3,
            "componentType" : 5123,
            "count" : 6144,
            "type" : "SCALAR"
        },
        {
            "bufferView" : 4,
            "componentType" : 5126,
            "count" : 4,
            "max" : [
                0.9956175088882446,
                0,
                0.7875908613204956
            ],
            "min" : [
                -0.9956175088882446,
                0,
                0.4272361397743225
            ],
            "type" : "VEC3"
        },
        {
            "bufferView" : 5,
            "componentType" : 5126,
            "count" : 4,
            "type" : "VEC3"
        },
        {
            "bufferView" : 6,
            "componentType" : 5126,
            "count" : 4,
            "type" : "VEC2"
        },
        {
            "bufferView" : 7,
            "componentType" : 5123,
            "count" : 6,
            "type" : "SCALAR"
        }
    ],
    "bufferViews" : [
        {
            "buffer" : 0,
            "byteLength" : 46272,
            "byteOffset" : 0
        },
        {
            "buffer" : 0,
            "byteLength" : 46272,
            "byteOffset" : 46272
        },
        {
            "buffer" : 0,
            "byteLength" : 30848,
            "byteOffset" : 92544
        },
        {
            "buffer" : 0,
            "byteLength" : 12288,
            "byteOffset" : 123392
        },
        {
            "buffer" : 0,
            "byteLength" : 48,
            "byteOffset" : 135680
        },
        {
            "buffer" : 0,
            "byteLength" : 48,
            "byteOffset" : 135728
        },
        {
            "buffer" : 0,
            "byteLength" : 32,
            "byteOffset" : 135776
        },
        {
            "buffer" : 0,
            "byteLength" : 12,
            "byteOffset" : 135808
        }
    ],
    "buffers" : [
        {
            "byteLength" : 135820,
            "uri" : "ground.bin"
        }
    ]
}
